<mxfile host="app.diagrams.net" modified="2024-04-12T22:34:46.888Z" agent="Mozilla/5.0 (Windows NT 10.0; Win64; x64) AppleWebKit/537.36 (KHTML, like Gecko) Chrome/123.0.0.0 Safari/537.36" etag="EKMjC5WNxkSMA9se7cDz" version="24.2.3" type="device">
  <diagram name="Página-1" id="jxnaTw2kWptUf6G7pscZ">
    <mxGraphModel dx="874" dy="594" grid="1" gridSize="10" guides="1" tooltips="1" connect="1" arrows="1" fold="1" page="1" pageScale="1" pageWidth="827" pageHeight="1169" math="0" shadow="0">
      <root>
        <mxCell id="0" />
        <mxCell id="1" parent="0" />
        <mxCell id="z-7C0cpNzd3_sfeU9hVZ-28" style="edgeStyle=orthogonalEdgeStyle;rounded=0;orthogonalLoop=1;jettySize=auto;html=1;" edge="1" parent="1" source="z-7C0cpNzd3_sfeU9hVZ-1" target="z-7C0cpNzd3_sfeU9hVZ-5">
          <mxGeometry relative="1" as="geometry" />
        </mxCell>
        <mxCell id="z-7C0cpNzd3_sfeU9hVZ-29" style="edgeStyle=orthogonalEdgeStyle;rounded=0;orthogonalLoop=1;jettySize=auto;html=1;exitX=0.5;exitY=1;exitDx=0;exitDy=0;entryX=0.5;entryY=0;entryDx=0;entryDy=0;" edge="1" parent="1" source="z-7C0cpNzd3_sfeU9hVZ-1" target="z-7C0cpNzd3_sfeU9hVZ-4">
          <mxGeometry relative="1" as="geometry" />
        </mxCell>
        <mxCell id="z-7C0cpNzd3_sfeU9hVZ-30" style="edgeStyle=orthogonalEdgeStyle;rounded=0;orthogonalLoop=1;jettySize=auto;html=1;exitX=0.5;exitY=1;exitDx=0;exitDy=0;" edge="1" parent="1" source="z-7C0cpNzd3_sfeU9hVZ-1" target="z-7C0cpNzd3_sfeU9hVZ-3">
          <mxGeometry relative="1" as="geometry" />
        </mxCell>
        <mxCell id="z-7C0cpNzd3_sfeU9hVZ-31" style="edgeStyle=orthogonalEdgeStyle;rounded=0;orthogonalLoop=1;jettySize=auto;html=1;exitX=0.5;exitY=1;exitDx=0;exitDy=0;" edge="1" parent="1" source="z-7C0cpNzd3_sfeU9hVZ-1" target="z-7C0cpNzd3_sfeU9hVZ-24">
          <mxGeometry relative="1" as="geometry" />
        </mxCell>
        <mxCell id="z-7C0cpNzd3_sfeU9hVZ-1" value="SITIO WED" style="rounded=1;whiteSpace=wrap;html=1;" vertex="1" parent="1">
          <mxGeometry x="354" y="10" width="120" height="60" as="geometry" />
        </mxCell>
        <mxCell id="z-7C0cpNzd3_sfeU9hVZ-20" style="edgeStyle=orthogonalEdgeStyle;rounded=0;orthogonalLoop=1;jettySize=auto;html=1;exitX=0.5;exitY=1;exitDx=0;exitDy=0;entryX=0.5;entryY=0;entryDx=0;entryDy=0;" edge="1" parent="1" source="z-7C0cpNzd3_sfeU9hVZ-3" target="z-7C0cpNzd3_sfeU9hVZ-6">
          <mxGeometry relative="1" as="geometry" />
        </mxCell>
        <mxCell id="z-7C0cpNzd3_sfeU9hVZ-3" value="LIBROS" style="rounded=1;whiteSpace=wrap;html=1;" vertex="1" parent="1">
          <mxGeometry x="120" y="130" width="120" height="60" as="geometry" />
        </mxCell>
        <mxCell id="z-7C0cpNzd3_sfeU9hVZ-33" style="edgeStyle=orthogonalEdgeStyle;rounded=0;orthogonalLoop=1;jettySize=auto;html=1;exitX=0.5;exitY=1;exitDx=0;exitDy=0;entryX=0.5;entryY=0;entryDx=0;entryDy=0;" edge="1" parent="1" source="z-7C0cpNzd3_sfeU9hVZ-4" target="z-7C0cpNzd3_sfeU9hVZ-23">
          <mxGeometry relative="1" as="geometry" />
        </mxCell>
        <mxCell id="z-7C0cpNzd3_sfeU9hVZ-4" value="MAPA" style="rounded=1;whiteSpace=wrap;html=1;" vertex="1" parent="1">
          <mxGeometry x="280" y="130" width="120" height="60" as="geometry" />
        </mxCell>
        <mxCell id="z-7C0cpNzd3_sfeU9hVZ-34" style="edgeStyle=orthogonalEdgeStyle;rounded=0;orthogonalLoop=1;jettySize=auto;html=1;exitX=0.5;exitY=1;exitDx=0;exitDy=0;entryX=0.5;entryY=0;entryDx=0;entryDy=0;" edge="1" parent="1" source="z-7C0cpNzd3_sfeU9hVZ-5" target="z-7C0cpNzd3_sfeU9hVZ-22">
          <mxGeometry relative="1" as="geometry" />
        </mxCell>
        <mxCell id="z-7C0cpNzd3_sfeU9hVZ-5" value="UBICACION" style="rounded=1;whiteSpace=wrap;html=1;" vertex="1" parent="1">
          <mxGeometry x="440" y="130" width="120" height="60" as="geometry" />
        </mxCell>
        <mxCell id="z-7C0cpNzd3_sfeU9hVZ-21" style="edgeStyle=orthogonalEdgeStyle;rounded=0;orthogonalLoop=1;jettySize=auto;html=1;exitX=0.5;exitY=1;exitDx=0;exitDy=0;" edge="1" parent="1" source="z-7C0cpNzd3_sfeU9hVZ-6" target="z-7C0cpNzd3_sfeU9hVZ-7">
          <mxGeometry relative="1" as="geometry" />
        </mxCell>
        <mxCell id="z-7C0cpNzd3_sfeU9hVZ-6" value="GENEROS DE&amp;nbsp;&lt;div&gt;LIBROS&lt;/div&gt;" style="rounded=1;whiteSpace=wrap;html=1;" vertex="1" parent="1">
          <mxGeometry x="120" y="230" width="120" height="60" as="geometry" />
        </mxCell>
        <mxCell id="z-7C0cpNzd3_sfeU9hVZ-7" value="DESCRIPCION&lt;div&gt;DE GENEROS DE&lt;/div&gt;&lt;div&gt;LIBROS&lt;/div&gt;" style="rounded=1;whiteSpace=wrap;html=1;" vertex="1" parent="1">
          <mxGeometry x="120" y="330" width="120" height="60" as="geometry" />
        </mxCell>
        <mxCell id="z-7C0cpNzd3_sfeU9hVZ-22" value="UBICACIÓN DEL&lt;div&gt;PUNTO FISICO&lt;/div&gt;" style="rounded=1;whiteSpace=wrap;html=1;" vertex="1" parent="1">
          <mxGeometry x="440" y="230" width="120" height="60" as="geometry" />
        </mxCell>
        <mxCell id="z-7C0cpNzd3_sfeU9hVZ-23" value="MAPA DE LAS&lt;div&gt;OPCIONES DEL&lt;/div&gt;&lt;div&gt;SITIO WED&lt;/div&gt;" style="rounded=1;whiteSpace=wrap;html=1;" vertex="1" parent="1">
          <mxGeometry x="280" y="230" width="120" height="60" as="geometry" />
        </mxCell>
        <mxCell id="z-7C0cpNzd3_sfeU9hVZ-35" style="edgeStyle=orthogonalEdgeStyle;rounded=0;orthogonalLoop=1;jettySize=auto;html=1;exitX=0.5;exitY=1;exitDx=0;exitDy=0;entryX=0.5;entryY=0;entryDx=0;entryDy=0;" edge="1" parent="1" source="z-7C0cpNzd3_sfeU9hVZ-24" target="z-7C0cpNzd3_sfeU9hVZ-26">
          <mxGeometry relative="1" as="geometry" />
        </mxCell>
        <mxCell id="z-7C0cpNzd3_sfeU9hVZ-24" value="INGRESAR" style="rounded=1;whiteSpace=wrap;html=1;" vertex="1" parent="1">
          <mxGeometry x="600" y="130" width="120" height="60" as="geometry" />
        </mxCell>
        <mxCell id="z-7C0cpNzd3_sfeU9hVZ-26" value="INICIAR&lt;div&gt;SESION&lt;/div&gt;" style="rounded=1;whiteSpace=wrap;html=1;" vertex="1" parent="1">
          <mxGeometry x="600" y="230" width="120" height="60" as="geometry" />
        </mxCell>
      </root>
    </mxGraphModel>
  </diagram>
</mxfile>
